<?xml version="1.0" encoding="utf-8"?>
<!-- Generator: Adobe Illustrator 27.5.0, SVG Export Plug-In . SVG Version: 6.00 Build 0)  -->
<svg version="1.1" xmlns="http://www.w3.org/2000/svg" xmlns:xlink="http://www.w3.org/1999/xlink" x="0px" y="0px"
	 viewBox="0 0 750 500" style="enable-background:new 0 0 750 500;" xml:space="preserve">
<g id="BACKGROUND_2_">
	<rect style="fill:#000A3B;" width="750" height="500"/>
</g>
<g id="OBJECTS_1_">
	<g>
		<defs>
			<rect id="SVGID_1_" width="750" height="500"/>
		</defs>
		<clipPath id="SVGID_00000157307872165980585840000011924980978848436923_">
			<use xlink:href="#SVGID_1_"  style="overflow:visible;"/>
		</clipPath>
		
			<radialGradient id="SVGID_00000096036607597719246520000013264542166641126277_" cx="564.0615" cy="122.4456" r="345.9834" gradientUnits="userSpaceOnUse">
			<stop  offset="0" style="stop-color:#6145EA"/>
			<stop  offset="1" style="stop-color:#6145EA;stop-opacity:0"/>
		</radialGradient>
		
			<circle style="opacity:0.5;clip-path:url(#SVGID_00000157307872165980585840000011924980978848436923_);fill:url(#SVGID_00000096036607597719246520000013264542166641126277_);" cx="564.061" cy="122.446" r="345.983"/>
		
			<radialGradient id="SVGID_00000027578014971555045680000017490889747733078958_" cx="-6696.0117" cy="458.1712" r="63.3397" gradientTransform="matrix(-1 0 0 1 -6507.6914 -303.8832)" gradientUnits="userSpaceOnUse">
			<stop  offset="0" style="stop-color:#6145EA"/>
			<stop  offset="0.1167" style="stop-color:#4A37C1"/>
			<stop  offset="0.2533" style="stop-color:#342998"/>
			<stop  offset="0.3937" style="stop-color:#211E76"/>
			<stop  offset="0.5365" style="stop-color:#12155C"/>
			<stop  offset="0.6827" style="stop-color:#080F4A"/>
			<stop  offset="0.8343" style="stop-color:#020B3F"/>
			<stop  offset="1" style="stop-color:#000A3B"/>
		</radialGradient>
		
			<circle style="clip-path:url(#SVGID_00000157307872165980585840000011924980978848436923_);fill:url(#SVGID_00000027578014971555045680000017490889747733078958_);" cx="208.238" cy="158.586" r="49.937"/>
		
			<radialGradient id="SVGID_00000158012353250997006450000017268973461668562581_" cx="-7195.2588" cy="334.7803" r="87.1793" gradientTransform="matrix(-1 0 0 1 -6507.6914 -303.8832)" gradientUnits="userSpaceOnUse">
			<stop  offset="0" style="stop-color:#6145EA"/>
			<stop  offset="0.1167" style="stop-color:#4A37C1"/>
			<stop  offset="0.2533" style="stop-color:#342998"/>
			<stop  offset="0.3937" style="stop-color:#211E76"/>
			<stop  offset="0.5365" style="stop-color:#12155C"/>
			<stop  offset="0.6827" style="stop-color:#080F4A"/>
			<stop  offset="0.8343" style="stop-color:#020B3F"/>
			<stop  offset="1" style="stop-color:#000A3B"/>
		</radialGradient>
		
			<circle style="clip-path:url(#SVGID_00000157307872165980585840000011924980978848436923_);fill:url(#SVGID_00000158012353250997006450000017268973461668562581_);" cx="714.981" cy="36.813" r="68.732"/>
		
			<radialGradient id="SVGID_00000129176977744385803040000011569555182960219011_" cx="-6839.7593" cy="472.8666" r="21.4962" gradientTransform="matrix(-1 0 0 1 -6507.6914 -303.8832)" gradientUnits="userSpaceOnUse">
			<stop  offset="0" style="stop-color:#6145EA"/>
			<stop  offset="0.1167" style="stop-color:#4A37C1"/>
			<stop  offset="0.2533" style="stop-color:#342998"/>
			<stop  offset="0.3937" style="stop-color:#211E76"/>
			<stop  offset="0.5365" style="stop-color:#12155C"/>
			<stop  offset="0.6827" style="stop-color:#080F4A"/>
			<stop  offset="0.8343" style="stop-color:#020B3F"/>
			<stop  offset="1" style="stop-color:#000A3B"/>
		</radialGradient>
		
			<circle style="clip-path:url(#SVGID_00000157307872165980585840000011924980978848436923_);fill:url(#SVGID_00000129176977744385803040000011569555182960219011_);" cx="338.827" cy="170.442" r="16.948"/>
		
			<radialGradient id="SVGID_00000164494610386675858770000010524198367331308451_" cx="-6816.6758" cy="375.3182" r="35.8729" gradientTransform="matrix(-1 0 0 1 -6507.6914 -303.8832)" gradientUnits="userSpaceOnUse">
			<stop  offset="0" style="stop-color:#6145EA"/>
			<stop  offset="0.1167" style="stop-color:#4A37C1"/>
			<stop  offset="0.2533" style="stop-color:#342998"/>
			<stop  offset="0.3937" style="stop-color:#211E76"/>
			<stop  offset="0.5365" style="stop-color:#12155C"/>
			<stop  offset="0.6827" style="stop-color:#080F4A"/>
			<stop  offset="0.8343" style="stop-color:#020B3F"/>
			<stop  offset="1" style="stop-color:#000A3B"/>
		</radialGradient>
		
			<circle style="clip-path:url(#SVGID_00000157307872165980585840000011924980978848436923_);fill:url(#SVGID_00000164494610386675858770000010524198367331308451_);" cx="320.265" cy="73.869" r="28.282"/>
	</g>
	<g>
		<defs>
			<rect id="SVGID_00000166635794941397123710000017822181332884799653_" width="750" height="500"/>
		</defs>
		<clipPath id="SVGID_00000177472378275660094920000005245610305190414993_">
			<use xlink:href="#SVGID_00000166635794941397123710000017822181332884799653_"  style="overflow:visible;"/>
		</clipPath>
		
			<radialGradient id="SVGID_00000152966655686199759890000016661941208237892003_" cx="-7346.5884" cy="511.1837" r="600.9836" gradientTransform="matrix(-1 0 0 1 -7143.4204 0)" gradientUnits="userSpaceOnUse">
			<stop  offset="0.3372" style="stop-color:#E96487;stop-opacity:0.8"/>
			<stop  offset="0.7736" style="stop-color:#7948D3;stop-opacity:0.0855"/>
			<stop  offset="0.8258" style="stop-color:#6B45DC;stop-opacity:0"/>
		</radialGradient>
		
			<path style="opacity:0.2;clip-path:url(#SVGID_00000177472378275660094920000005245610305190414993_);fill:url(#SVGID_00000152966655686199759890000016661941208237892003_);" d="
			M427.555,546.875l-41.202-25.918l105.663,135.567l52.056-127.665L427.555,546.875z M748.137,552.836l-65.176,82.35l23.062-181.69
			L748.137,552.836z M981.573,409.512l-137.682,39.002l-8.458-71.426L981.573,409.512z M570.653,429.842l86.3-83.628l49.07,107.283
			L570.653,429.842z M233.181,325.046l-73.764-79.481l92.372,59.145l107.319,3.594l-64.123,169.188L233.181,325.046z
			 M359.106,308.303l48.512,55.157l-5.316,45.189L359.106,308.303z M518.739,392.962l51.914,36.88l-26.582,99.017l-42.752-47.775
			L518.739,392.962z M-286.826,578.371l-48.512-46.919l82.404-132.909L-286.826,578.371z M-213.302,778.609l75.501-27.592
			L-4.56,693.733l-94.864,158.694l-124.935-69.777l-43.195-39.208L-213.302,778.609z M-362.584,620.501l22.595,101.011
			l-136.232-63.796l51.17-89.714L-362.584,620.501z M-500.144,345.38l64.461-175.44l55.822,170.788L-500.144,345.38z M25.76,518.627
			L76.099,410.04l0.166,78.084l121.03-0.794l97.688-9.839l107.319-68.841l-15.949,112.308l-90.705,5.046l8.639,71.106
			l-125.599-47.082l-75.367-45.55L25.76,518.627z M127.85,425.987l40.206-109.316l65.125,8.375l-14.62,95.353l76.423,57.092
			l-132.439-40.812l-43.25,12.57L76.099,410.04L127.85,425.987z M368.41,272.418l176.104,50.22l-25.776,70.324L407.618,363.46
			L368.41,272.418z M76.099,410.04L4.577,353.886l-36.55-95.561l-9.968-78.55l201.357,65.79l-85.061,46.518L76.099,410.04z
			 M706.023,453.496l-106.13,72.705l83.068,108.985l-138.89-106.327L706.023,453.496z M656.953,346.214l84.5,17.718l18.796,31.953
			L656.953,346.214z M903.099,239.877l-67.666,137.212l-93.981-13.157L903.099,239.877z M760.249,395.885l83.643,52.629
			l-95.755,104.322l37.486-101.503L760.249,395.885z M-137.801,751.018l-75.758-122.94l81.074-22.595L-137.801,751.018z
			 M-335.337,531.452l-89.714,36.55l-150.187,17.278l136.232-127.593L-335.337,531.452z M-213.559,628.077l-53.995,115.365
			l-72.435-21.93l53.164-143.141L-213.559,628.077z M-252.934,398.544l-186.072,59.144l-61.138-112.308l177.433,71.106
			L-252.934,398.544z M-99.424,383.924l-33.061,221.559l-28.077-147.794L-99.424,383.924z M-160.562,457.688l-92.372-59.144
			l15.34-16.766l-75.813-1.177l21.265-57.151l57.815,54.757l32.032,4.119l102.871,1.597l-69.777,2.658L-160.562,457.688z
			 M-219.706,345.38l-72.436-21.93l-43.195-39.208L-435.684,169.94l313.894,131.148l-48.076,36.982L-219.706,345.38z
			 M-379.862,340.728l44.525-56.486l21.93,96.359L-379.862,340.728z M109.289,604.45l69.398-54.424l-42.364,57.981L-4.56,693.733
			l-61.138-112.308L109.289,604.45z M-99.424,383.924l9.852-69.375l-32.217-13.461l38.314-29.472l88.052,82.27l-70.275,227.539
			L-99.424,383.924z"/>
		
			<radialGradient id="SVGID_00000112613772535301244710000002418199347369860993_" cx="-7346.5908" cy="511.184" r="601.378" gradientTransform="matrix(-1 0 0 1 -7143.4204 0)" gradientUnits="userSpaceOnUse">
			<stop  offset="0.3372" style="stop-color:#E96487"/>
			<stop  offset="0.7736" style="stop-color:#7948D3;stop-opacity:0.1069"/>
			<stop  offset="0.8258" style="stop-color:#6B45DC;stop-opacity:0"/>
		</radialGradient>
		
			<path style="opacity:0.5;clip-path:url(#SVGID_00000177472378275660094920000005245610305190414993_);fill:url(#SVGID_00000112613772535301244710000002418199347369860993_);" d="
			M-575.627,585.432c-0.027-0.069-0.037-0.141-0.026-0.215c0.001-0.008-0.001-0.016,0.001-0.024
			c0.012-0.057,0.034-0.113,0.071-0.164c0.011-0.015,0.027-0.023,0.039-0.036c0.006-0.007,0.006-0.018,0.013-0.024l135.991-127.367
			l-60.98-112.019c-0.009-0.016-0.004-0.034-0.01-0.051c-0.02-0.052-0.032-0.103-0.031-0.159c0-0.028,0.003-0.052,0.008-0.08
			c0.004-0.02-0.001-0.041,0.007-0.061l64.461-175.439c0.002-0.005,0.007-0.007,0.009-0.011c0.024-0.06,0.058-0.116,0.11-0.161
			c0.009-0.008,0.02-0.01,0.03-0.017c0.004-0.003,0.009-0.005,0.012-0.007c0.07-0.048,0.148-0.074,0.229-0.075
			c0.007-0.001,0.011-0.005,0.017-0.006c0.003,0,0.005,0.002,0.007,0.003c0.076,0.003,0.147,0.03,0.213,0.072
			c0.015,0.01,0.027,0.02,0.042,0.031c0.016,0.014,0.036,0.022,0.05,0.038l100.312,114.268l43.124,39.143l72.253,21.875l49.637-7.28
			l86.303-66.387c0.045-0.035,0.097-0.057,0.15-0.071c0.003-0.001,0.006,0,0.009-0.001c0.047-0.012,0.094-0.015,0.142-0.01
			c0.006,0,0.012-0.002,0.018-0.001c0.015,0.002,0.026,0.011,0.04,0.014c0.032,0.008,0.063,0.017,0.092,0.033
			c0.021,0.011,0.039,0.024,0.058,0.038c0.013,0.01,0.028,0.015,0.04,0.026l86.707,81.013l-35.892-93.841
			c-0.008-0.022-0.007-0.045-0.011-0.068c-0.003-0.011-0.012-0.02-0.014-0.031l-9.968-78.55c0-0.003,0.001-0.007,0.001-0.01
			c-0.005-0.048-0.001-0.096,0.01-0.143c0.005-0.02,0.014-0.037,0.022-0.055c0.008-0.021,0.013-0.044,0.025-0.064
			c0.005-0.008,0.013-0.013,0.018-0.021c0.012-0.017,0.026-0.031,0.04-0.046c0.022-0.024,0.045-0.045,0.072-0.063
			c0.016-0.011,0.031-0.019,0.048-0.028c0.033-0.016,0.066-0.027,0.102-0.035c0.011-0.002,0.02-0.009,0.031-0.011
			c0.006-0.001,0.011,0.002,0.016,0.001c0.046-0.004,0.092,0,0.138,0.011c0.006,0.001,0.012,0.001,0.017,0.003
			c0.005,0.001,0.01,0.001,0.014,0.002l201.333,65.782c0.008,0.002,0.015,0.005,0.023,0.008l0.001,0c0,0,0,0.001,0.001,0.001
			c0.022,0.007,0.041,0.021,0.061,0.032c0.012,0.006,0.024,0.007,0.035,0.014l0.029,0.018c0.002,0.002,0.004,0.002,0.006,0.004
			l92.177,59.02l116.439-32.241c0.008-0.002,0.017,0,0.025-0.002c0.012-0.003,0.024-0.007,0.037-0.009
			c0.012-0.002,0.025-0.003,0.037-0.003c0.014,0,0.027,0.003,0.041,0.003c0.019,0.001,0.036,0.003,0.055,0.007
			c0.008,0.001,0.016-0.001,0.025,0.001c0.002,0.001,0.004,0.002,0.006,0.003c0.001,0,0.003,0,0.004,0l176.104,50.219
			c0.114,0.032,0.209,0.111,0.262,0.216c0.054,0.106,0.061,0.229,0.02,0.339l-25.664,70.02l51.361,36.487l86.046-83.383
			c0.01-0.009,0.022-0.011,0.032-0.019c0.033-0.027,0.069-0.048,0.109-0.063c0.019-0.008,0.037-0.016,0.058-0.02
			c0.049-0.012,0.1-0.015,0.153-0.008c0.008,0.001,0.015-0.003,0.022-0.001c0.002,0,0.003,0.001,0.004,0.002
			c0.002,0,0.003,0,0.005,0l84.096,17.634l38.905-159.837c0.001-0.003,0.003-0.006,0.005-0.009c0.001-0.004,0-0.007,0.001-0.01
			c0.007-0.025,0.024-0.044,0.035-0.067c0.013-0.025,0.022-0.051,0.039-0.073c0.018-0.023,0.042-0.039,0.064-0.058
			c0.019-0.016,0.036-0.035,0.059-0.048c0.025-0.015,0.053-0.021,0.081-0.03c0.024-0.008,0.047-0.019,0.072-0.023
			c0.029-0.004,0.059,0.001,0.089,0.003c0.023,0.001,0.047-0.003,0.07,0.003c0.003,0.001,0.005,0.003,0.009,0.004
			c0.004,0.001,0.007,0,0.011,0.001l122.646,36.182c0.005,0.002,0.009,0.006,0.014,0.008c0.01,0.003,0.02,0.008,0.03,0.013
			c0.008,0.003,0.016,0.003,0.023,0.006c0.004,0.002,0.006,0.005,0.009,0.007c0.015,0.008,0.027,0.019,0.041,0.029
			c0.013,0.009,0.027,0.016,0.039,0.026c0.009,0.007,0.015,0.017,0.024,0.025c0.009,0.009,0.019,0.017,0.027,0.027
			c0.003,0.003,0.007,0.005,0.009,0.008c0.007,0.009,0.008,0.021,0.015,0.03c0.008,0.013,0.018,0.025,0.025,0.039
			c0.002,0.004,0.006,0.007,0.008,0.011l78.474,169.635c0.002,0.004,0.002,0.009,0.003,0.013c0.019,0.044,0.03,0.091,0.033,0.14
			c0,0.004,0.003,0.008,0.003,0.013c0,0,0,0,0,0c0.002,0.053-0.008,0.103-0.024,0.151c-0.005,0.014-0.014,0.026-0.02,0.04
			c-0.015,0.033-0.032,0.064-0.055,0.091c-0.012,0.014-0.025,0.025-0.039,0.038c-0.025,0.024-0.052,0.044-0.083,0.061
			c-0.01,0.005-0.015,0.014-0.025,0.018c-0.008,0.004-0.017,0.002-0.025,0.006c-0.013,0.005-0.024,0.014-0.037,0.018
			l-137.681,39.003c-0.004,0.001-0.009,0.001-0.013,0.002c-0.011,0.003-0.022,0.003-0.034,0.005
			c-0.01,0.002-0.021,0.003-0.031,0.004c-0.006,0.001-0.011,0.004-0.018,0.004l-57.987,2.806l-37.388,101.238
			c-0.007,0.019-0.026,0.027-0.035,0.044c-0.012,0.024-0.014,0.052-0.031,0.073l-65.176,82.35c0,0-0.001,0-0.001,0.001
			c-0.005,0.006-0.012,0.01-0.018,0.015c-0.005,0.006-0.008,0.014-0.014,0.02c-0.013,0.013-0.031,0.019-0.045,0.03
			c-0.02,0.016-0.039,0.033-0.062,0.045c-0.007,0.004-0.014,0.007-0.022,0.011c-0.023,0.01-0.047,0.013-0.071,0.019
			c-0.019,0.005-0.034,0.015-0.054,0.017l-190.946,21.338c-0.016,0.002-0.031,0.003-0.047,0.003h0h0l0,0c0,0,0,0,0,0s0,0,0,0
			c0,0,0,0,0,0c-0.001,0-0.003-0.001-0.004-0.001c-0.041,0-0.082-0.006-0.124-0.019l-187.728-59.415
			c-0.004-0.001-0.006-0.004-0.01-0.005c-0.004-0.001-0.007-0.001-0.011-0.002l-0.001,0c-0.001,0-0.003-0.001-0.004-0.002
			l-0.013-0.005c0,0,0,0-0.001,0l-125.278-46.962l-42.174,57.72c-0.002,0.003-0.006,0.005-0.008,0.007
			c-0.002,0.003-0.003,0.006-0.005,0.009c-0.001,0.001-0.003,0.002-0.004,0.003c-0.008,0.01-0.02,0.017-0.029,0.026
			c-0.021,0.021-0.041,0.041-0.066,0.057c-0.004,0.003-0.006,0.007-0.011,0.01L-4.248,694.041l-94.81,158.605
			c-0.007,0.011-0.019,0.015-0.026,0.025c-0.028,0.039-0.061,0.071-0.101,0.099c-0.011,0.008-0.018,0.02-0.029,0.027
			c-0.008,0.005-0.018,0.004-0.027,0.008c-0.011,0.005-0.019,0.015-0.031,0.02c-0.049,0.018-0.1,0.028-0.15,0.028h0c0,0,0,0,0,0
			c-0.07,0-0.141-0.018-0.207-0.054l-124.935-69.778c-0.028-0.016-0.055-0.035-0.079-0.056l-43.124-39.143l-72.344-21.902
			c-0.003-0.001-0.005-0.003-0.007-0.004c-0.051-0.016-0.098-0.042-0.139-0.075c-0.009-0.008-0.015-0.018-0.023-0.026
			c-0.03-0.029-0.055-0.06-0.076-0.097c-0.003-0.006-0.009-0.01-0.012-0.016c-0.006-0.012-0.005-0.026-0.01-0.038
			c-0.008-0.02-0.019-0.037-0.024-0.058l-22.492-100.554l-113.192,37.069c-0.028,0.009-0.056,0.006-0.084,0.009
			c-0.017,0.002-0.032,0.011-0.049,0.011c-0.005,0-0.011-0.004-0.016-0.004c-0.065-0.003-0.128-0.019-0.184-0.049
			c-0.003-0.002-0.007-0.001-0.01-0.003c-0.01-0.006-0.015-0.015-0.024-0.021c-0.005-0.003-0.011-0.002-0.016-0.005l-99.017-72.435
			c-0.056-0.041-0.094-0.094-0.124-0.152c-0.003-0.005-0.008-0.007-0.011-0.013C-575.628,585.45-575.624,585.441-575.627,585.432z
			 M-339.888,720.017l52.263-140.715l-74.474,41.416L-339.888,720.017z M748.11,551.682l36.896-99.906l-78.348,2.128L748.11,551.682
			z M780.763,204.229l-38.611,158.63l160.026-122.811L780.763,204.229z M-219.414,345.767l-13.96,31.345l61.55-38.325
			L-219.414,345.767z M599.69,526.636l-54.436,2.592l135.442,103.689L599.69,526.636z M427.24,547.179l-39.061-24.57
			l100.172,128.521L427.24,547.179z M491.946,655.567l51.447-126.173l-115.155,17.805L491.946,655.567z M427.51,546.344
			l71.937-64.159l-112.118,38.885L427.51,546.344z M-335.626,531.111l80.457-129.77L-423.22,566.797L-335.626,531.111z
			 M359.132,309.437l-63.294,167l105.931-67.951L359.132,309.437z M232.548,326.366L120.636,448.415l97.545-28.349L232.548,326.366z
			 M219.02,420.211l74.996,56.026l-60.649-149.599L219.02,420.211z M402.065,407.023l5.108-43.424l-46.616-53.001L402.065,407.023z
			 M402.753,408.453l96.256,70.415l-91.088-114.344L402.753,408.453z M402.623,409.411l-15.751,110.915l113.541-39.378
			L402.623,409.411z M401.75,409.509l-105.893,67.927l90.156,42.889L401.75,409.509z M295.418,478.168l0.65,47.385l88.596-4.928
			L295.418,478.168z M218.785,421.098l-20.888,65.744l95.956-9.665L218.785,421.098z M217.914,421.03l-97.442,28.32l76.567,37.381
			L217.914,421.03z M75.678,411.961L26.731,517.543l49.108-29.658L75.678,411.961z M76.689,487.169l41.972-37.921l-42.134-38.245
			L76.689,487.169z M-322.118,415.895l67.59-17.38l-58.578-17.38L-322.118,415.895z M-253.068,398.06l17.747-19.396l-75.427,2.283
			L-253.068,398.06z M-252.279,398.458l89.131,57.069l-71.177-76.692L-252.279,398.458z M-161.143,456.437l-8.441-69.475
			l-63.637-8.189L-161.143,456.437z M-160.259,456.655l59.9-72.27l-68.364,2.599L-160.259,456.655z M-100.07,385.37l-60.037,72.435
			l27.572,145.132L-100.07,385.37z M-131.959,604.841l65.781-23.695l-33.218-194.529L-131.959,604.841z M-252.633,399.241
			l-33.53,177.907l124.915-119.394L-252.633,399.241z M-253.774,400.707l-81.021,130.679l47.698,46.13L-253.774,400.707z
			 M-254.359,399.349l-68.089,17.507l-99.866,147.853L-254.359,399.349z M-313.899,380.802l-64.306-38.584l55.303,73.309
			L-313.899,380.802z M-314.043,379.723l-21.511-94.518l-43.674,55.407L-314.043,379.723z M-235.357,377.818l-56.611-53.617
			l-20.82,55.955L-235.357,377.818z M-169.633,386.103l-0.647-47.273l-62.807,39.107L-169.633,386.103z M-168.782,386.14
			l68.003-2.591l-68.65-44.687L-168.782,386.14z M-65.579,579.597L3.939,354.513l-102.879,29.714L-65.579,579.597z M-64.931,580.383
			l90.235-61.96L4.405,355.884L-64.931,580.383z M25.994,517.11l49.577-106.943L5.132,354.862L25.994,517.11z M76.522,409.85
			l41.953,38.079L74.828,295.285L76.522,409.85z M119.345,447.878l48.149-130.914l-92.525-24.281L119.345,447.878z M168.337,317.137
			l-47.899,130.234l111.874-122.008L168.337,317.137z M294.97,476.325l63.486-167.506l-124.675,16.577L294.97,476.325z
			 M406.167,361.165l-37.656-87.439l-8.935,34.465L406.167,361.165z M501.08,480.101l17.164-86.83l-109.491-29.069L501.08,480.101z
			 M296.125,526.402l8.484,69.828l80.59-74.782L296.125,526.402z M294.564,477.96l-95.479,9.617l96.129,37.798L294.564,477.96z
			 M119.366,449.757l-41.988,37.935l118.1-0.776L119.366,449.757z M26.499,518.677l108.564,87.765L76.091,488.727L26.499,518.677z
			 M25.739,519.157l-90.281,61.991l199.423,26.24L25.739,519.157z M-65.897,581.95l-65.665,23.653l125.776,86.769L-65.897,581.95z
			 M-160.662,459.442l-52.259,168.015l79.945-22.279L-160.662,459.442z M-212.9,628.335l74.725,121.264l5.244-143.551
			L-212.9,628.335z M-213.227,629.427l-10.661,152.598l85.451-31.228L-213.227,629.427z M-161.457,459.132l-124.694,119.182
			l72.355,49.088L-161.457,459.132z M-335.134,532.242l-26.734,87.375l74.335-41.339L-335.134,532.242z M-336.006,532.184
			l-88.231,35.946l61.435,51.631L-336.006,532.184z M-323.788,417.319l-114.753,40.655l13.771,108.852L-323.788,417.319z
			 M-380.067,341.162l-118.065,4.566l174.162,69.796L-380.067,341.162z M-379.704,339.841l43.814-55.584l-98.744-112.477
			L-379.704,339.841z M-313.309,379.116l20.668-55.545l-41.982-38.11L-313.309,379.116z M-234.47,377.485l14.179-31.838
			l-70.251-21.269L-234.47,377.485z M-99.751,383.203l15.708-110.613l-85.087,65.452L-99.751,383.203z M-98.91,383.333
			l102.65-29.648l-86.908-81.2L-98.91,383.333z M75.66,409.155l-1.717-116.14L5.241,353.866L75.66,409.155z M-31.585,258.002
			l104.34,33.126L-41.367,180.921L-31.585,258.002z M-31.26,258.998L4.755,353.16l68.756-60.898L-31.26,258.998z M167.557,316.101
			l-8.488-69.862l-83.572,45.703L167.557,316.101z M168.438,316.292l63.631,8.183l-72.072-77.658L168.438,316.292z M353.967,308.557
			l-101.997-3.416l-17.685,19.328L353.967,308.557z M358.781,307.866l9.033-34.842l-113.232,31.353L358.781,307.866z
			 M407.927,363.102l108.975,28.932L369.476,273.818L407.927,363.102z M501.778,480.959l41.597,46.483l-24.648-132.224
			L501.778,480.959z M501.285,481.685l-72.374,64.549l114.32-17.676L501.285,481.685z M599.327,525.802l-28.649-94.411
			l-26.045,97.017L599.327,525.802z M600.132,525.521l104.79-71.786l-133.66-23.355L600.132,525.521z M759.541,396.017
			l-101.712-48.91l48.317,105.638L759.541,396.017z M707.034,453.043l77.935-2.117l-24.844-54.289L707.034,453.043z
			 M901.911,241.325L742.517,363.651l92.671,12.974L901.911,241.325z M742.266,364.475l18.188,30.92l72.753-18.188L742.266,364.475z
			 M903.087,240.864l-67.033,135.927l144.772,32.119L903.087,240.864z M835.068,377.619l-73.748,18.437l82.045,51.624
			L835.068,377.619z M761.229,397.005l24.661,53.891l56.632-2.741L761.229,397.005z M600.503,526.299l82.167,107.804l22.812-179.72
			L600.503,526.299z M544.255,529.536l-51.575,126.486l189.182-21.14L544.255,529.536z M386.302,521.584l-81.19,75.339
			l185.725,58.781L386.302,521.584z M295.256,526.306l-96.277-37.857L303.713,595.91L295.256,526.306z M77.775,488.54
			l100.661,60.837l18.288-61.619L77.775,488.54z M77.305,489.25l59.087,117.943l41.678-57.043L77.305,489.25z M-64.925,581.956
			L-4.4,693.138l139.47-84.866L-64.925,581.956z M-132.088,606.273l-5.264,144.088l131.917-56.714L-132.088,606.273z
			 M-138.05,751.561l-85.291,31.17l123.106,68.756L-138.05,751.561z M-224.722,781.745l10.579-151.418l-52.893,113.01
			L-224.722,781.745z M-267.305,741.906l53.207-113.681l-72.197-48.98L-267.305,741.906z M-424.934,568.656l-50.37,88.311
			l111.861-36.633L-424.934,568.656z M-476.354,657.091l50.517-88.57l-148.272,17.058L-476.354,657.091z M-425.527,567.629
			l-13.797-109.06L-574.007,584.71L-425.527,567.629z M-438.806,457.165l114.893-40.703l-175.292-70.249L-438.806,457.165z
			 M-380.442,340.325l-55.266-169.086l-63.818,173.692L-380.442,340.325z M-40.315,180.754l114.74,110.805l83.923-45.895
			L-40.315,180.754z M233.178,324.418l17.954-19.623l-89.131-57.069L233.178,324.418z M370.322,273.405L518.543,392.26
			l25.414-69.339L370.322,273.405z M519.35,393.917l24.796,133.022l26.019-96.922L519.35,393.917z M705.3,452.938l-48.483-106
			l-85.268,82.629L705.3,452.938z M759.173,394.896l-17.992-30.587l-80.884-16.96L759.173,394.896z M835.926,377.634l8.33,70.335
			l135.58-38.408L835.926,377.634z M747.647,552.77l-41.401-97.657l-22.671,178.611L747.647,552.77z M197.497,488.146
			l-18.288,61.622l123.445,46.274L197.497,488.146z M-137.26,751.247l37.922,100.207L-5.6,694.643L-137.26,751.247z
			 M-268.052,742.847l-18.991-162.669l-52.39,141.058L-268.052,742.847z"/>
		
			<radialGradient id="SVGID_00000140733526399573761070000003157951147782646462_" cx="-7346.5884" cy="476.2953" r="597.6096" gradientTransform="matrix(-1 0 0 1 -7143.4204 0)" gradientUnits="userSpaceOnUse">
			<stop  offset="0" style="stop-color:#E96487;stop-opacity:0.8"/>
			<stop  offset="0.3228" style="stop-color:#E76389;stop-opacity:0.5418"/>
			<stop  offset="0.4905" style="stop-color:#DF628E;stop-opacity:0.4076"/>
			<stop  offset="0.6226" style="stop-color:#D15E97;stop-opacity:0.3019"/>
			<stop  offset="0.7361" style="stop-color:#BE5AA4;stop-opacity:0.2111"/>
			<stop  offset="0.8377" style="stop-color:#A653B4;stop-opacity:0.1299"/>
			<stop  offset="0.9293" style="stop-color:#884CC9;stop-opacity:0.0566"/>
			<stop  offset="1" style="stop-color:#6B45DC;stop-opacity:0"/>
		</radialGradient>
		
			<path style="clip-path:url(#SVGID_00000177472378275660094920000005245610305190414993_);fill:url(#SVGID_00000140733526399573761070000003157951147782646462_);" d="
			M539.372,524.16c-1.246,1.246-1.947,2.937-1.947,4.699c0,1.762,0.7,3.453,1.947,4.699c1.246,1.246,2.937,1.946,4.699,1.946
			c1.763,0,3.453-0.7,4.699-1.946c1.246-1.246,1.946-2.936,1.946-4.699c0-1.762-0.7-3.453-1.946-4.699
			c-1.246-1.246-2.937-1.946-4.699-1.946C542.309,522.214,540.619,522.914,539.372,524.16z M361.765,272.418
			c0-1.763,0.7-3.453,1.946-4.699c1.246-1.246,2.937-1.946,4.699-1.946c1.763,0,3.452,0.7,4.699,1.946
			c1.246,1.246,1.947,2.936,1.947,4.699c0,1.762-0.701,3.453-1.947,4.699c-1.246,1.246-2.936,1.946-4.699,1.946
			c-1.762,0-3.453-0.7-4.699-1.946C362.465,275.87,361.765,274.18,361.765,272.418z M492.015,649.879c1.762,0,3.453,0.7,4.699,1.946
			c1.246,1.246,1.946,2.937,1.946,4.699c0,1.763-0.7,3.453-1.946,4.699c-1.246,1.246-2.937,1.947-4.699,1.947
			c-1.763,0-3.453-0.701-4.699-1.947c-1.246-1.246-1.946-2.937-1.946-4.699c0-1.762,0.7-3.453,1.946-4.699
			C488.562,650.579,490.253,649.879,492.015,649.879z M402.919,368.159c-1.246-1.246-1.946-2.937-1.946-4.699
			c0-1.762,0.7-3.452,1.946-4.699c1.246-1.246,2.936-1.946,4.699-1.946s3.453,0.7,4.699,1.946s1.946,2.936,1.946,4.699
			c0,1.763-0.7,3.453-1.946,4.699c-1.246,1.246-2.937,1.946-4.699,1.946S404.165,369.405,402.919,368.159z M494.674,481.085
			c0-1.763,0.7-3.453,1.946-4.699c1.246-1.246,2.936-1.946,4.699-1.946c1.763,0,3.453,0.7,4.699,1.946
			c1.246,1.246,1.946,2.937,1.946,4.699c0,1.762-0.7,3.453-1.946,4.699c-1.246,1.246-2.936,1.946-4.699,1.946
			c-1.763,0-3.453-0.7-4.699-1.946C495.374,484.537,494.674,482.847,494.674,481.085z M386.353,514.312
			c1.565,0,3.08,0.552,4.278,1.56c1.198,1.008,2.002,2.406,2.27,3.949c0.268,1.542-0.017,3.129-0.805,4.481
			c-0.788,1.353-2.028,2.384-3.501,2.912l0,0c-0.719,0.257-1.477,0.389-2.241,0.389c-1.763,0-3.453-0.7-4.699-1.946
			c-1.246-1.246-1.946-2.936-1.946-4.699c0-1.762,0.7-3.453,1.946-4.699C382.9,515.012,384.59,514.312,386.353,514.312
			 M359.106,301.658c1.763,0,3.453,0.7,4.699,1.946c1.246,1.246,1.946,2.937,1.946,4.699c0,1.762-0.7,3.453-1.946,4.699
			c-1.246,1.246-2.936,1.946-4.699,1.946c-1.762,0-3.453-0.7-4.699-1.946c-1.246-1.246-1.946-2.936-1.946-4.699
			c0-1.762,0.7-3.453,1.946-4.699C355.654,302.358,357.344,301.658,359.106,301.658z M427.555,540.229
			c1.762,0,3.453,0.7,4.699,1.946c1.246,1.246,1.946,2.937,1.946,4.699c0,1.763-0.7,3.453-1.946,4.699
			c-1.246,1.246-2.936,1.946-4.699,1.946c-1.763,0-3.453-0.7-4.699-1.946c-1.246-1.246-1.946-2.936-1.946-4.699
			c0-1.763,0.7-3.453,1.946-4.699C424.102,540.929,425.792,540.229,427.555,540.229z M402.302,402.004
			c1.762,0,3.453,0.7,4.699,1.946c1.246,1.246,1.946,2.937,1.946,4.699c0,1.762-0.7,3.453-1.946,4.699
			c-1.246,1.246-2.937,1.946-4.699,1.946c-1.763,0-3.453-0.7-4.699-1.946c-1.246-1.246-1.946-2.937-1.946-4.699
			c0-1.763,0.7-3.453,1.946-4.699C398.849,402.704,400.539,402.004,402.302,402.004z M295.648,519.357
			c1.763,0,3.453,0.7,4.699,1.946c1.246,1.246,1.946,2.937,1.946,4.699c0,1.763-0.7,3.453-1.946,4.699
			c-1.246,1.246-2.937,1.947-4.699,1.947c-1.763,0-3.453-0.7-4.699-1.947c-1.246-1.246-1.946-2.936-1.946-4.699
			c0-1.762,0.7-3.453,1.946-4.699C292.195,520.057,293.885,519.357,295.648,519.357z M304.287,590.463
			c1.762,0,3.453,0.7,4.699,1.946c1.246,1.246,1.947,2.936,1.947,4.699c0,1.763-0.701,3.453-1.947,4.699s-2.937,1.946-4.699,1.946
			s-3.453-0.7-4.699-1.946c-1.246-1.246-1.946-2.937-1.946-4.699c0-1.762,0.7-3.453,1.946-4.699
			C300.834,591.163,302.525,590.463,304.287,590.463z M218.56,413.754c1.763,0,3.453,0.7,4.699,1.946
			c1.246,1.246,1.946,2.937,1.946,4.699c0,1.762-0.7,3.453-1.946,4.699c-1.246,1.246-2.937,1.946-4.699,1.946
			c-1.762,0-3.452-0.7-4.699-1.946c-1.246-1.246-1.947-2.936-1.947-4.699c0-1.763,0.701-3.453,1.947-4.699
			C215.108,414.454,216.798,413.754,218.56,413.754z M197.295,480.684c1.762,0,3.453,0.7,4.699,1.946
			c1.246,1.246,1.947,2.937,1.947,4.699c0,1.762-0.7,3.453-1.947,4.699c-1.246,1.246-2.937,1.947-4.699,1.947
			c-1.762,0-3.453-0.7-4.699-1.947c-1.246-1.246-1.946-2.936-1.946-4.699c0-1.763,0.7-3.453,1.946-4.699
			C193.842,481.384,195.533,480.684,197.295,480.684z M294.983,470.845c1.763,0,3.453,0.7,4.699,1.947
			c1.246,1.246,1.946,2.936,1.946,4.699c0,1.762-0.7,3.453-1.946,4.699c-1.246,1.246-2.936,1.946-4.699,1.946
			c-1.762,0-3.453-0.7-4.699-1.946c-1.246-1.246-1.946-2.937-1.946-4.699c0-1.762,0.7-3.453,1.946-4.699
			C291.53,471.546,293.221,470.845,294.983,470.845z M251.788,298.064c1.763,0,3.453,0.7,4.699,1.946
			c1.246,1.246,1.947,2.937,1.947,4.699c0,1.763-0.7,3.453-1.947,4.699c-1.246,1.246-2.936,1.947-4.699,1.947
			c-1.762,0-3.453-0.701-4.699-1.947c-1.246-1.246-1.946-2.936-1.946-4.699c0-1.762,0.7-3.453,1.946-4.699
			C248.335,298.764,250.025,298.064,251.788,298.064z M233.181,318.4c1.763,0,3.453,0.7,4.699,1.946
			c1.246,1.246,1.946,2.937,1.946,4.699c0,1.762-0.7,3.453-1.946,4.699c-1.246,1.246-2.936,1.946-4.699,1.946
			c-1.762,0-3.453-0.7-4.699-1.946c-1.246-1.246-1.946-2.936-1.946-4.699c0-1.763,0.7-3.453,1.946-4.699
			C229.728,319.1,231.418,318.4,233.181,318.4z M178.688,543.38c1.763,0,3.453,0.7,4.699,1.946c1.246,1.246,1.946,2.937,1.946,4.699
			c0,1.762-0.7,3.452-1.946,4.699c-1.246,1.246-2.937,1.946-4.699,1.946c-1.762,0-3.453-0.7-4.699-1.946
			c-1.246-1.246-1.946-2.936-1.946-4.699c0-1.763,0.7-3.453,1.946-4.699C175.235,544.081,176.925,543.38,178.688,543.38z
			 M76.265,481.479c1.762,0,3.453,0.701,4.699,1.947c1.246,1.246,1.947,2.937,1.947,4.699c0,1.762-0.7,3.453-1.947,4.699
			c-1.246,1.246-2.937,1.946-4.699,1.946c-1.763,0-3.453-0.7-4.699-1.946c-1.246-1.246-1.946-2.937-1.946-4.699
			c0-1.762,0.7-3.453,1.946-4.699C72.812,482.179,74.503,481.479,76.265,481.479z M136.324,601.362c1.762,0,3.453,0.7,4.699,1.946
			c1.246,1.246,1.946,2.936,1.946,4.699c0,1.762-0.7,3.453-1.946,4.699c-1.246,1.246-2.937,1.946-4.699,1.946
			c-1.762,0-3.453-0.7-4.699-1.946c-1.246-1.246-1.946-2.937-1.946-4.699c0-1.762,0.7-3.453,1.946-4.699
			C132.871,602.062,134.561,601.362,136.324,601.362z M159.416,238.919c1.763,0,3.453,0.7,4.699,1.947
			c1.246,1.246,1.946,2.936,1.946,4.699c0,1.762-0.7,3.453-1.946,4.699c-1.246,1.246-2.936,1.946-4.699,1.946
			c-1.762,0-3.453-0.7-4.699-1.946c-1.246-1.246-1.946-2.937-1.946-4.699c0-1.762,0.7-3.453,1.946-4.699
			C155.963,239.62,157.654,238.919,159.416,238.919z M-41.941,173.13c1.762,0,3.453,0.7,4.699,1.946
			c1.246,1.246,1.946,2.936,1.946,4.699c0,1.762-0.7,3.453-1.946,4.699c-1.246,1.246-2.937,1.946-4.699,1.946
			c-1.763,0-3.453-0.7-4.699-1.946c-1.246-1.246-1.946-2.937-1.946-4.699c0-1.763,0.7-3.453,1.946-4.699
			C-45.394,173.829-43.703,173.13-41.941,173.13z M74.355,285.438c1.762,0,3.453,0.7,4.699,1.946C80.3,288.63,81,290.32,81,292.083
			c0,1.762-0.7,3.453-1.946,4.699c-1.246,1.246-2.937,1.946-4.699,1.946c-1.763,0-3.453-0.7-4.699-1.946
			c-1.246-1.246-1.946-2.937-1.946-4.699c0-1.762,0.7-3.453,1.946-4.699C70.902,286.138,72.592,285.438,74.355,285.438z
			 M-31.973,251.679c1.762,0,3.453,0.7,4.699,1.947c1.246,1.246,1.946,2.936,1.946,4.699c0,1.762-0.7,3.453-1.946,4.699
			c-1.246,1.246-2.937,1.946-4.699,1.946c-1.763,0-3.453-0.7-4.699-1.946c-1.246-1.246-1.946-2.937-1.946-4.699
			c0-1.762,0.7-3.453,1.946-4.699C-35.425,252.38-33.735,251.679-31.973,251.679z M119.295,442.603c1.762,0,3.452,0.7,4.699,1.946
			c1.246,1.246,1.947,2.937,1.947,4.699c0,1.763-0.701,3.453-1.947,4.699c-1.246,1.246-2.937,1.947-4.699,1.947
			c-1.763,0-3.453-0.7-4.699-1.947c-1.246-1.246-1.946-2.936-1.946-4.699c0-1.762,0.7-3.453,1.946-4.699
			C115.842,443.303,117.532,442.603,119.295,442.603z M168.055,310.026c1.762,0,3.453,0.7,4.699,1.946
			c1.246,1.246,1.947,2.936,1.947,4.699c0,1.762-0.7,3.453-1.947,4.699c-1.246,1.246-2.937,1.946-4.699,1.946
			c-1.762,0-3.453-0.7-4.699-1.946c-1.246-1.246-1.946-2.936-1.946-4.699c0-1.763,0.7-3.453,1.946-4.699
			C164.602,310.726,166.293,310.026,168.055,310.026z M76.099,403.395c1.762,0,3.453,0.7,4.699,1.946
			c1.246,1.246,1.946,2.936,1.946,4.699c0,1.762-0.7,3.453-1.946,4.699c-1.246,1.246-2.937,1.946-4.699,1.946
			c-1.763,0-3.453-0.7-4.699-1.946c-1.246-1.246-1.947-2.937-1.947-4.699c0-1.763,0.7-3.453,1.947-4.699
			C72.646,404.095,74.336,403.395,76.099,403.395z M-2.068,353.886c0-1.763,0.7-3.453,1.946-4.699
			c1.246-1.246,2.937-1.946,4.699-1.946c1.763,0,3.453,0.7,4.699,1.946c1.246,1.246,1.946,2.936,1.946,4.699
			c0,1.763-0.7,3.453-1.946,4.699c-1.246,1.246-2.936,1.946-4.699,1.946c-1.762,0-3.453-0.7-4.699-1.946
			C-1.368,357.338-2.068,355.648-2.068,353.886z M25.76,511.981c1.763,0,3.453,0.7,4.699,1.946c1.246,1.246,1.946,2.937,1.946,4.699
			c0,1.762-0.7,3.453-1.946,4.699c-1.246,1.246-2.936,1.946-4.699,1.946c-1.763,0-3.453-0.7-4.699-1.946
			c-1.247-1.246-1.946-2.936-1.946-4.699c0-1.763,0.7-3.453,1.946-4.699C22.307,512.681,23.997,511.981,25.76,511.981z
			 M-83.475,264.97c1.762,0,3.452,0.7,4.699,1.946c1.246,1.246,1.947,2.936,1.947,4.699c0,1.762-0.7,3.452-1.947,4.699
			c-1.246,1.246-2.937,1.946-4.699,1.946c-1.763,0-3.453-0.7-4.699-1.946s-1.946-2.936-1.946-4.699c0-1.763,0.7-3.453,1.946-4.699
			S-85.237,264.97-83.475,264.97z M-4.56,687.088c1.763,0,3.453,0.701,4.699,1.947c1.246,1.246,1.946,2.937,1.946,4.699
			c0,1.762-0.7,3.453-1.946,4.699c-1.246,1.246-2.937,1.946-4.699,1.946c-1.762,0-3.453-0.7-4.699-1.946
			c-1.246-1.246-1.946-2.937-1.946-4.699c0-1.763,0.7-3.453,1.946-4.699C-8.013,687.788-6.322,687.088-4.56,687.088z
			 M-169.866,331.425c1.762,0,3.453,0.7,4.699,1.946c1.246,1.246,1.946,2.937,1.946,4.699c0,1.763-0.7,3.453-1.946,4.699
			c-1.246,1.246-2.937,1.946-4.699,1.946c-1.762,0-3.453-0.7-4.699-1.946c-1.246-1.247-1.947-2.937-1.947-4.699
			c0-1.762,0.7-3.453,1.947-4.699C-173.318,332.125-171.628,331.425-169.866,331.425z M-65.698,574.78
			c1.762,0,3.453,0.7,4.699,1.946c1.246,1.246,1.947,2.937,1.947,4.699c0,1.763-0.7,3.453-1.947,4.699
			c-1.246,1.246-2.936,1.946-4.699,1.946c-1.762,0-3.453-0.7-4.699-1.946c-1.246-1.246-1.946-2.937-1.946-4.699
			c0-1.762,0.7-3.453,1.946-4.699C-69.151,575.48-67.46,574.78-65.698,574.78z M-99.424,377.278c1.762,0,3.453,0.7,4.699,1.946
			c1.246,1.246,1.947,2.936,1.947,4.699c0,1.762-0.7,3.453-1.947,4.699c-1.246,1.246-2.937,1.946-4.699,1.946
			c-1.762,0-3.453-0.7-4.699-1.946c-1.246-1.246-1.946-2.937-1.946-4.699c0-1.763,0.7-3.453,1.946-4.699
			C-102.877,377.978-101.186,377.278-99.424,377.278z M-160.562,451.043c1.763,0,3.453,0.7,4.699,1.946
			c1.246,1.246,1.946,2.936,1.946,4.699c0,1.762-0.7,3.453-1.946,4.699c-1.247,1.246-2.937,1.946-4.699,1.946
			c-1.762,0-3.453-0.7-4.699-1.946c-1.246-1.246-1.946-2.937-1.946-4.699c0-1.762,0.7-3.453,1.946-4.699
			C-164.015,451.743-162.325,451.043-160.562,451.043z M-137.801,744.372c1.762,0,3.453,0.7,4.699,1.947
			c1.246,1.246,1.946,2.936,1.946,4.699c0,1.762-0.7,3.453-1.946,4.699c-1.246,1.246-2.936,1.946-4.699,1.946
			c-1.762,0-3.453-0.7-4.699-1.946c-1.246-1.246-1.946-2.937-1.946-4.699c0-1.763,0.7-3.453,1.946-4.699
			C-141.254,745.072-139.563,744.372-137.801,744.372z M-286.826,571.725c1.763,0,3.453,0.7,4.699,1.946
			c1.246,1.246,1.946,2.937,1.946,4.699c0,1.762-0.7,3.453-1.946,4.699c-1.247,1.246-2.937,1.946-4.699,1.946
			c-1.763,0-3.453-0.7-4.699-1.946c-1.246-1.246-1.946-2.936-1.946-4.699c0-1.763,0.7-3.453,1.946-4.699
			C-290.278,572.425-288.588,571.725-286.826,571.725z M-219.706,352.025c-1.762,0-3.453-0.7-4.699-1.946
			c-1.246-1.246-1.946-2.937-1.946-4.699c0-1.763,0.7-3.453,1.946-4.699c1.246-1.246,2.937-1.946,4.699-1.946
			c1.762,0,3.453,0.7,4.699,1.946c1.247,1.246,1.946,2.936,1.946,4.699c0,1.762-0.7,3.453-1.946,4.699
			C-216.254,351.325-217.944,352.025-219.706,352.025z M-224.359,776.005c1.763,0,3.453,0.7,4.699,1.946
			c1.246,1.246,1.946,2.936,1.946,4.699c0,1.762-0.7,3.453-1.946,4.699c-1.246,1.246-2.937,1.946-4.699,1.946
			c-1.762,0-3.452-0.7-4.699-1.946c-1.246-1.246-1.947-2.937-1.947-4.699c0-1.763,0.701-3.453,1.947-4.699
			C-227.811,776.705-226.121,776.005-224.359,776.005z M-137.184,610.181c-1.246-1.246-1.946-2.936-1.946-4.699
			c0-1.763,0.7-3.453,1.946-4.699c1.246-1.246,2.937-1.946,4.699-1.946c1.762,0,3.453,0.7,4.699,1.946
			c1.246,1.246,1.946,2.937,1.946,4.699c0,1.762-0.7,3.453-1.946,4.699c-1.246,1.246-2.936,1.947-4.699,1.947
			C-134.247,612.128-135.938,611.427-137.184,610.181z M-220.205,628.077c0-1.763,0.7-3.453,1.947-4.699
			c1.246-1.246,2.936-1.946,4.699-1.946c1.763,0,3.453,0.7,4.699,1.946c1.246,1.246,1.946,2.937,1.946,4.699
			c0,1.762-0.7,3.453-1.946,4.699c-1.246,1.246-2.937,1.946-4.699,1.946c-1.762,0-3.452-0.7-4.699-1.946
			C-219.504,631.53-220.205,629.839-220.205,628.077z M-234.327,371.562c1.763,0,3.453,0.7,4.699,1.946
			c1.246,1.246,1.946,2.937,1.946,4.699c0,1.762-0.7,3.453-1.946,4.699c-1.246,1.246-2.937,1.946-4.699,1.946
			c-1.763,0-3.453-0.7-4.699-1.946c-1.246-1.246-1.946-2.936-1.946-4.699c0-1.763,0.7-3.453,1.946-4.699
			C-237.779,372.262-236.089,371.562-234.327,371.562z M-267.554,736.797c1.762,0,3.453,0.7,4.699,1.946
			c1.246,1.246,1.946,2.937,1.946,4.699c0,1.762-0.7,3.453-1.946,4.699c-1.246,1.246-2.937,1.947-4.699,1.947
			c-1.762,0-3.453-0.7-4.699-1.947c-1.246-1.246-1.946-2.937-1.946-4.699c0-1.763,0.7-3.453,1.946-4.699
			C-271.007,737.497-269.316,736.797-267.554,736.797z M-340.036,536.151c-1.246-1.246-1.947-2.936-1.947-4.699
			c0-1.762,0.7-3.453,1.947-4.699c1.246-1.246,2.936-1.946,4.699-1.946c1.763,0,3.453,0.7,4.699,1.946
			c1.246,1.246,1.946,2.937,1.946,4.699c0,1.763-0.7,3.453-1.946,4.699c-1.246,1.246-2.937,1.947-4.699,1.947
			C-337.1,538.098-338.79,537.398-340.036,536.151z M-292.142,316.805c1.762,0,3.453,0.7,4.699,1.946
			c1.246,1.246,1.946,2.937,1.946,4.699c0,1.763-0.7,3.453-1.946,4.699c-1.246,1.246-2.937,1.947-4.699,1.947
			s-3.453-0.7-4.699-1.947c-1.246-1.246-1.946-2.936-1.946-4.699c0-1.762,0.7-3.453,1.946-4.699
			C-295.595,317.505-293.904,316.805-292.142,316.805z M-327.41,411.787c1.246-1.246,2.936-1.947,4.699-1.947
			c1.762,0,3.453,0.701,4.699,1.947c1.246,1.246,1.946,2.936,1.946,4.699c0,1.762-0.7,3.453-1.946,4.699
			c-1.246,1.246-2.937,1.946-4.699,1.946c-1.763,0-3.453-0.7-4.699-1.946c-1.246-1.246-1.947-2.937-1.947-4.699
			C-329.357,414.724-328.656,413.034-327.41,411.787z M-252.934,391.898c1.763,0,3.453,0.7,4.699,1.946
			c1.247,1.246,1.947,2.936,1.947,4.699c0,1.763-0.7,3.453-1.947,4.699c-1.246,1.246-2.936,1.946-4.699,1.946
			c-1.762,0-3.453-0.7-4.699-1.946c-1.246-1.246-1.946-2.936-1.946-4.699c0-1.763,0.7-3.453,1.946-4.699
			C-256.387,392.598-254.696,391.898-252.934,391.898z M-305.363,377.793c0.351,0.772,0.55,1.604,0.588,2.451
			c0.077,1.708-0.508,3.38-1.633,4.668c-0.558,0.639-1.233,1.165-1.988,1.55c-0.755,0.385-1.576,0.621-2.42,0.698l-0.597-13.264
			c1.711,0,3.356,0.66,4.592,1.842C-306.209,376.323-305.713,377.021-305.363,377.793z M-316.113,385.24
			c-1.246-1.246-1.946-2.936-1.946-4.699c0-1.763,0.7-3.453,1.946-4.699c1.247-1.246,2.937-1.946,4.699-1.946v13.291
			C-313.176,387.186-314.866,386.486-316.113,385.24z M-362.584,613.856c1.763,0,3.453,0.7,4.699,1.947
			c1.246,1.246,1.946,2.936,1.946,4.699c0,1.763-0.7,3.453-1.946,4.699c-1.246,1.246-2.937,1.946-4.699,1.946
			c-1.762,0-3.453-0.7-4.699-1.946s-1.946-2.937-1.946-4.699c0-1.762,0.7-3.453,1.946-4.699
			C-366.036,614.556-364.346,613.856-362.584,613.856z M-339.989,714.867c1.762,0,3.453,0.7,4.699,1.946
			c1.246,1.246,1.946,2.937,1.946,4.699c0,1.763-0.7,3.453-1.946,4.699c-1.246,1.246-2.937,1.947-4.699,1.947
			c-1.762,0-3.453-0.7-4.699-1.947c-1.246-1.246-1.947-2.936-1.947-4.699c0-1.762,0.701-3.453,1.947-4.699
			C-343.442,715.567-341.751,714.867-339.989,714.867z M-476.221,651.07c1.763,0,3.453,0.7,4.699,1.947
			c1.246,1.246,1.947,2.936,1.947,4.699c0,1.762-0.701,3.453-1.947,4.699c-1.246,1.246-2.936,1.946-4.699,1.946
			c-1.762,0-3.453-0.7-4.699-1.946c-1.246-1.246-1.946-2.937-1.946-4.699c0-1.762,0.7-3.453,1.946-4.699
			C-479.673,651.77-477.983,651.07-476.221,651.07z M-425.051,561.357c1.762,0,3.453,0.7,4.699,1.947
			c1.247,1.246,1.946,2.936,1.946,4.699c0,1.762-0.7,3.453-1.946,4.699c-1.246,1.246-2.937,1.946-4.699,1.946
			c-1.762,0-3.453-0.7-4.699-1.946c-1.246-1.246-1.947-2.937-1.947-4.699c0-1.762,0.701-3.453,1.947-4.699
			C-428.503,562.057-426.813,561.357-425.051,561.357z M-500.144,338.734c1.763,0,3.453,0.7,4.699,1.947
			c1.247,1.246,1.946,2.936,1.946,4.699c0,1.762-0.7,3.453-1.946,4.699c-1.246,1.246-2.936,1.946-4.699,1.946
			c-1.762,0-3.453-0.7-4.699-1.946c-1.246-1.246-1.946-2.937-1.946-4.699c0-1.763,0.7-3.453,1.946-4.699
			C-503.597,339.435-501.907,338.734-500.144,338.734z M-579.937,580.581c1.246-1.246,2.937-1.946,4.699-1.946
			c1.763,0,3.453,0.7,4.699,1.946c1.246,1.246,1.946,2.937,1.946,4.699s-0.7,3.453-1.946,4.699
			c-1.246,1.246-2.937,1.946-4.699,1.946c-1.762,0-3.453-0.7-4.699-1.946c-1.246-1.246-1.946-2.936-1.946-4.699
			S-581.183,581.828-579.937,580.581z M-435.684,176.586c-1.762,0-3.453-0.7-4.699-1.946c-1.246-1.246-1.947-2.936-1.947-4.699
			c0-1.762,0.7-3.453,1.947-4.699c1.246-1.246,2.936-1.946,4.699-1.946c1.763,0,3.453,0.7,4.699,1.946
			c1.246,1.246,1.946,2.937,1.946,4.699c0,1.763-0.7,3.453-1.946,4.699C-432.231,175.886-433.921,176.586-435.684,176.586z
			 M-439.006,451.042c1.762,0,3.453,0.7,4.699,1.946c1.246,1.246,1.947,2.937,1.947,4.699c0,1.762-0.7,3.453-1.947,4.699
			c-1.246,1.246-2.937,1.947-4.699,1.947c-1.762,0-3.453-0.701-4.699-1.947c-1.246-1.246-1.946-2.937-1.946-4.699
			c0-1.762,0.7-3.453,1.946-4.699C-442.459,451.742-440.769,451.042-439.006,451.042z M-335.337,290.887
			c-1.763,0-3.453-0.7-4.699-1.946c-1.246-1.246-1.946-2.937-1.946-4.699c0-1.763,0.7-3.453,1.946-4.699
			c1.246-1.246,2.937-1.947,4.699-1.947c1.762,0,3.453,0.7,4.699,1.947c1.246,1.246,1.946,2.936,1.946,4.699
			c0,1.762-0.7,3.453-1.946,4.699C-331.884,290.187-333.575,290.887-335.337,290.887z M-379.862,334.083
			c1.762,0,3.452,0.7,4.699,1.946c1.246,1.246,1.947,2.936,1.947,4.699c0,1.763-0.7,3.453-1.947,4.699
			c-1.246,1.246-2.936,1.946-4.699,1.946c-1.762,0-3.453-0.7-4.699-1.946c-1.246-1.246-1.946-2.936-1.946-4.699
			c0-1.763,0.7-3.453,1.946-4.699C-383.315,334.783-381.624,334.083-379.862,334.083z M835.434,370.444
			c1.763,0,3.452,0.7,4.699,1.946c1.246,1.246,1.947,2.936,1.947,4.699c0,1.763-0.701,3.453-1.947,4.699
			c-1.246,1.246-2.936,1.946-4.699,1.946c-1.763,0-3.453-0.7-4.699-1.946c-1.247-1.246-1.946-2.936-1.946-4.699
			c0-1.762,0.7-3.453,1.946-4.699C831.98,371.144,833.671,370.444,835.434,370.444z M903.099,233.232c1.763,0,3.453,0.7,4.699,1.946
			c1.247,1.246,1.947,2.936,1.947,4.699c0,1.762-0.7,3.453-1.947,4.699c-1.246,1.246-2.937,1.946-4.699,1.946
			c-1.762,0-3.452-0.7-4.699-1.946c-1.246-1.246-1.947-2.936-1.947-4.699c0-1.763,0.701-3.453,1.947-4.699
			C899.647,233.932,901.337,233.232,903.099,233.232z M780.455,197.049c1.763,0,3.453,0.7,4.699,1.947
			c1.246,1.246,1.946,2.937,1.946,4.699c0,1.762-0.7,3.453-1.946,4.699c-1.246,1.246-2.937,1.946-4.699,1.946
			s-3.453-0.7-4.699-1.946c-1.246-1.246-1.946-2.937-1.946-4.699c0-1.762,0.7-3.453,1.946-4.699
			C777.002,197.749,778.692,197.049,780.455,197.049z M981.573,402.867c1.763,0,3.453,0.7,4.699,1.946
			c1.246,1.246,1.946,2.936,1.946,4.699c0,1.763-0.7,3.453-1.946,4.699c-1.246,1.246-2.937,1.946-4.699,1.946
			c-1.763,0-3.452-0.7-4.699-1.946c-1.246-1.246-1.947-2.936-1.947-4.699c0-1.763,0.701-3.453,1.947-4.699
			C978.121,403.567,979.811,402.867,981.573,402.867z M766.267,393.068c0.356,0.76,0.564,1.579,0.615,2.417
			c0.102,1.69-0.445,3.355-1.529,4.656c-1.084,1.3-2.624,2.138-4.305,2.342l-0.799-13.243c1.693,0,3.322,0.646,4.555,1.807
			C765.415,391.622,765.912,392.308,766.267,393.068z M741.453,357.286c1.763,0,3.453,0.7,4.699,1.947
			c1.246,1.246,1.946,2.937,1.946,4.699c0,1.763-0.7,3.453-1.946,4.699c-1.246,1.246-2.936,1.946-4.699,1.946
			c-1.763,0-3.453-0.7-4.699-1.946c-1.246-1.246-1.946-2.937-1.946-4.699c0-1.762,0.7-3.453,1.946-4.699
			C738,357.987,739.69,357.286,741.453,357.286z M755.55,391.186c1.246-1.246,2.937-1.946,4.699-1.946v13.291
			c-1.763,0-3.453-0.7-4.699-1.946c-1.246-1.246-1.946-2.936-1.946-4.699C753.604,394.123,754.304,392.432,755.55,391.186z
			 M850.439,447.377c0.268,1.542-0.017,3.129-0.805,4.481c-0.788,1.353-2.028,2.384-3.501,2.912l-2.241-12.902
			c1.565,0,3.08,0.553,4.278,1.56C849.368,444.436,850.171,445.835,850.439,447.377z M843.892,455.16l2.241-0.389
			C845.413,455.028,844.656,455.16,843.892,455.16z M843.892,441.869v13.291c-1.763,0-3.453-0.7-4.699-1.946
			c-1.246-1.246-1.946-2.937-1.946-4.699c0-1.763,0.7-3.453,1.946-4.699C840.439,442.569,842.129,441.869,843.892,441.869z
			 M656.953,339.568c1.763,0,3.452,0.7,4.699,1.946c1.246,1.246,1.946,2.937,1.946,4.699c0,1.762-0.7,3.453-1.946,4.699
			c-1.246,1.246-2.936,1.947-4.699,1.947s-3.453-0.7-4.699-1.947c-1.246-1.246-1.946-2.936-1.946-4.699
			c0-1.763,0.7-3.453,1.946-4.699S655.191,339.568,656.953,339.568z M682.961,628.541c1.763,0,3.453,0.7,4.699,1.946
			c1.247,1.246,1.947,2.936,1.947,4.699c0,1.763-0.7,3.453-1.947,4.699c-1.246,1.246-2.936,1.946-4.699,1.946
			c-1.763,0-3.453-0.7-4.699-1.946c-1.246-1.246-1.946-2.936-1.946-4.699c0-1.763,0.7-3.453,1.946-4.699
			C679.508,629.241,681.199,628.541,682.961,628.541z M706.023,446.851c1.763,0,3.453,0.7,4.699,1.946
			c1.247,1.246,1.947,2.937,1.947,4.699c0,1.762-0.7,3.453-1.947,4.699c-1.246,1.246-2.936,1.947-4.699,1.947
			c-1.763,0-3.453-0.701-4.699-1.947c-1.246-1.246-1.946-2.936-1.946-4.699c0-1.762,0.7-3.453,1.946-4.699
			C702.57,447.551,704.26,446.851,706.023,446.851z M599.893,519.556c1.763,0,3.452,0.7,4.699,1.947
			c1.246,1.246,1.946,2.936,1.946,4.699c0,1.762-0.7,3.453-1.946,4.699c-1.246,1.246-2.936,1.946-4.699,1.946
			c-1.763,0-3.453-0.7-4.699-1.946c-1.246-1.246-1.946-2.937-1.946-4.699c0-1.763,0.7-3.453,1.946-4.699
			C596.44,520.256,598.13,519.556,599.893,519.556z M748.137,546.191c1.763,0,3.453,0.7,4.699,1.946
			c1.246,1.246,1.946,2.937,1.946,4.699c0,1.762-0.7,3.453-1.946,4.699c-1.246,1.246-2.936,1.947-4.699,1.947
			c-1.763,0-3.453-0.701-4.699-1.947c-1.246-1.246-1.946-2.937-1.946-4.699c0-1.762,0.7-3.453,1.946-4.699
			C744.685,546.891,746.375,546.191,748.137,546.191z M518.739,386.316c1.763,0,3.453,0.7,4.699,1.946
			c1.246,1.246,1.947,2.937,1.947,4.699c0,1.762-0.701,3.453-1.947,4.699c-1.246,1.246-2.936,1.946-4.699,1.946
			c-1.762,0-3.453-0.7-4.699-1.946c-1.246-1.246-1.946-2.936-1.946-4.699c0-1.762,0.7-3.453,1.946-4.699
			C515.286,387.016,516.976,386.316,518.739,386.316z M544.514,329.283c-1.762,0-3.453-0.7-4.699-1.947
			c-1.246-1.246-1.946-2.936-1.946-4.699c0-1.762,0.7-3.453,1.946-4.699c1.246-1.246,2.937-1.946,4.699-1.946
			c1.763,0,3.453,0.7,4.699,1.946c1.246,1.246,1.946,2.937,1.946,4.699c0,1.762-0.7,3.453-1.946,4.699
			C547.967,328.583,546.277,329.283,544.514,329.283z M570.653,423.197c1.763,0,3.453,0.7,4.699,1.946
			c1.246,1.246,1.946,2.936,1.946,4.699c0,1.763-0.7,3.453-1.946,4.699c-1.246,1.246-2.937,1.946-4.699,1.946
			c-1.763,0-3.453-0.7-4.699-1.946c-1.246-1.246-1.947-2.936-1.947-4.699c0-1.763,0.7-3.453,1.947-4.699
			C567.201,423.897,568.891,423.197,570.653,423.197z"/>
	</g>
	
		<radialGradient id="SVGID_00000034777452467465507430000007675489673133309070_" cx="-7991.978" cy="-1241.0481" r="42.5905" gradientTransform="matrix(-0.7071 0.7071 -0.7071 -0.7071 -6477.1797 4874.0107)" gradientUnits="userSpaceOnUse">
		<stop  offset="0" style="stop-color:#D4D4D5"/>
		<stop  offset="0.2987" style="stop-color:#E96487"/>
		<stop  offset="1" style="stop-color:#6145EA"/>
	</radialGradient>
	<circle style="fill:url(#SVGID_00000034777452467465507430000007675489673133309070_);" cx="72.484" cy="97.567" r="29.84"/>
	
		<radialGradient id="SVGID_00000101100611457403647500000015448128535834446760_" cx="-8104.2441" cy="-1263.3604" r="23.6326" gradientTransform="matrix(-0.7071 0.7071 -0.7071 -0.7071 -6477.1797 4874.0107)" gradientUnits="userSpaceOnUse">
		<stop  offset="0" style="stop-color:#D4D4D5"/>
		<stop  offset="0.2987" style="stop-color:#E96487"/>
		<stop  offset="1" style="stop-color:#6145EA"/>
	</radialGradient>
	<path style="fill:url(#SVGID_00000101100611457403647500000015448128535834446760_);" d="M146.593,46.942
		c-6.466-6.466-6.466-16.95,0-23.416c6.466-6.466,16.95-6.466,23.416,0c6.466,6.466,6.466,16.95,0,23.416
		S153.059,53.408,146.593,46.942z"/>
	
		<radialGradient id="SVGID_00000042722996569791387280000013214925055905300864_" cx="-8302.1523" cy="-1786.7968" r="36.5668" gradientTransform="matrix(-0.7071 0.7071 -0.7071 -0.7071 -6477.1797 4874.0107)" gradientUnits="userSpaceOnUse">
		<stop  offset="0" style="stop-color:#D4D4D5"/>
		<stop  offset="0.2987" style="stop-color:#E96487"/>
		<stop  offset="1" style="stop-color:#6145EA"/>
	</radialGradient>
	<circle style="fill:url(#SVGID_00000042722996569791387280000013214925055905300864_);" cx="674.738" cy="264.546" r="25.62"/>
	
		<radialGradient id="SVGID_00000000928618431050007130000015989741611880290744_" cx="-8371.4482" cy="-1786.9799" r="13.8587" gradientTransform="matrix(-0.7071 0.7071 -0.7071 -0.7071 -6477.1797 4874.0107)" gradientUnits="userSpaceOnUse">
		<stop  offset="0" style="stop-color:#D4D4D5"/>
		<stop  offset="0.2987" style="stop-color:#E96487"/>
		<stop  offset="1" style="stop-color:#6145EA"/>
	</radialGradient>
	<path style="fill:url(#SVGID_00000000928618431050007130000015989741611880290744_);" d="M705.809,224.068
		c-3.792-3.792-3.792-9.94,0-13.732c3.792-3.792,9.94-3.792,13.732,0c3.792,3.792,3.792,9.94,0,13.732
		C715.749,227.86,709.601,227.86,705.809,224.068z"/>
	
		<radialGradient id="SVGID_00000166637129740901198430000001863070963097232515_" cx="403.8281" cy="366.7698" r="103.1951" gradientUnits="userSpaceOnUse">
		<stop  offset="0" style="stop-color:#E96487"/>
		<stop  offset="1" style="stop-color:#6145EA;stop-opacity:0"/>
	</radialGradient>
	
		<circle style="opacity:0.3;fill:url(#SVGID_00000166637129740901198430000001863070963097232515_);" cx="403.828" cy="366.77" r="129.369"/>
</g>
<g id="TEXTS_1_">
	<g>
		
			<text transform="matrix(1 0 0 1 474.6072 150.0081)" style="fill:#D4D4D5; font-family:'OpenSans-ExtraBold'; font-size:24.5504px;">Dinamic Wave</text>
		<text transform="matrix(1 0 0 1 476.8418 178.4705)" style="fill:#D4D4D5; font-family:'OpenSans-Light'; font-size:24.5504px;">· Background ·</text>
	</g>
</g>
</svg>
